<?xml version="1.0" encoding="utf-8"?>
<!-- Generator: Adobe Illustrator 25.0.1, SVG Export Plug-In . SVG Version: 6.00 Build 0)  -->
<svg version="1.1" id="Layer_1" xmlns="http://www.w3.org/2000/svg" xmlns:xlink="http://www.w3.org/1999/xlink" x="0px" y="0px"
	 width="16px" height="16px" viewBox="0 0 16 16" enable-background="new 0 0 16 16" xml:space="preserve">
<g id="css">
	<path id="Fill_1" fill-rule="evenodd" clip-rule="evenodd" fill="#9AA7B0" fill-opacity="0.8" d="M7,1L3,5h4V1z"/>
	<path id="Fill_3" fill-rule="evenodd" clip-rule="evenodd" fill="#9AA7B0" fill-opacity="0.8" d="M8,1v5H3v2h10V1H8z"/>
	<path id="Fill_5" fill-rule="evenodd" clip-rule="evenodd" fill="#512BD4" fill-opacity="0.3" d="M1,16h15V9H1V16z"/>
	<polygon fill="#231F20" fill-opacity="0.7" points="3,10 4,10 4,12 6,12 6,10 7,10 7,15 6,15 6,13 4,13 4,15 3,15 	"/>
	<path fill="#231F20" fill-opacity="0.7" d="M13,12v-1h-1v-1h-1v1h-1v-1H9v1H8v1h1v1H8v1h1v1h1v-1h1v1h1v-1h1v-1h-1v-1H13z M11,13
		h-1v-1h1V13z"/>
</g>
</svg>
